<svg xmlns="http://www.w3.org/2000/svg" width="317.744" height="280.919" viewBox="0 0 317.744 280.919"><g id="splash_bg" transform="translate(-0.006 0.013)"><path id="Path_244" fill="#6a8185" d="M80.668,55.476S133.3-4.417,194.418,24.65s8.966,55.493,19.828,54.719,64.746-43.714,87.14,23.031,8.186,103.422-36.527,108.658,18.815,26.213-7.5,44.672S131.931,296.9,108.8,266.256s.178-69.071.178-69.071-28.923,49.333-53.8,22.784-24.9-94.525.281-105.195,43.625-23.2,31.285-22.312S63.742,74.249,80.668,55.476Z" data-name="Path 244" opacity=".2" transform="translate(-11.533 -5.271)"/><g id="Group_28" data-name="Group 28" transform="translate(77.973 53.28)"><path id="Path_245" fill="#3e2d4a" d="M171.666,153.842s-19.643-1.4-25.871-22.682S117.74,91.745,114.229,83.922s24.119-9.7,39.614,4.2S181.46,137.874,171.666,153.842Z" data-name="Path 245" transform="translate(-113.924 -77.853)"/><g id="Group_27" data-name="Group 27" transform="translate(3.289 2.174)"><path id="Path_246" fill="#fefada" d="M170.527,153.715c-.767-.8-1.547-3.525-2.731-7.638-3.148-10.978-9.014-31.408-23.688-45.445-10.259-9.815-16.577-13.866-20.067-15.543-3.792-1.814-5.161-1.3-5.174-1.294l-.137-.315c.219-.1,5.7-2.142,25.618,16.905,14.742,14.1,20.621,34.59,23.777,45.6,1.129,3.922,1.937,6.762,2.649,7.5Z" data-name="Path 246" transform="translate(-118.73 -81.769)"/><path id="Path_247" fill="#fefada" d="M142.7,96.566a1.345,1.345,0,0,1-.76-.417c-3.333-2.984-16.734-2.7-16.871-2.7l-.007-.342c.554-.014,13.675-.281,17.1,2.786.356.315.527.349.568.322.712-.486-2-7.891-3.306-11.45a38.756,38.756,0,0,1-1.266-3.689l.342-.041c.034.308.6,1.841,1.246,3.614,2.669,7.275,3.963,11.32,3.176,11.854A.413.413,0,0,1,142.7,96.566Z" data-name="Path 247" transform="translate(-120.728 -81.03)"/><path id="Path_248" fill="#fefada" d="M161.61,114.728a1.627,1.627,0,0,1-.808-.287c-4.161-2.519-15.358-.938-15.475-.917l-.048-.342c.465-.068,11.437-1.615,15.7.965.39.233.671.294.828.178.78-.568-.178-4.606-1.184-8.884-1.143-4.832-2.437-10.307-2.183-14.01l.342.021c-.253,3.648,1.033,9.1,2.17,13.907,1.287,5.455,1.971,8.569,1.054,9.24A.616.616,0,0,1,161.61,114.728Z" data-name="Path 248" transform="translate(-127.109 -84.312)"/><path id="Path_249" fill="#fefada" d="M174.047,138.766c-.315,0-.568-.376-.739-.671-2.491-4.367-17.227-7.734-17.377-7.768l.075-.335c.609.137,15.03,3.436,17.6,7.926.294.513.445.5.459.493.65-.151.91-4.825,1.164-9.342.342-6.03.76-13.545,2.231-17.658l.322.116c-1.451,4.065-1.875,11.546-2.211,17.562-.349,6.208-.568,9.452-1.43,9.657A.211.211,0,0,1,174.047,138.766Z" data-name="Path 249" transform="translate(-130.47 -90.617)"/><path id="Path_250" fill="#fefada" d="M181.122,166.687c-1.636,0-4.969-2.046-8.761-4.373-3.511-2.156-7.145-4.38-9.582-5.051l.089-.329c2.484.678,6.132,2.916,9.671,5.085,3.874,2.375,7.884,4.839,9.007,4.237a.659.659,0,0,0,.3-.616c.144-3.97,6.242-18.034,6.5-18.63l.315.137c-.062.144-6.331,14.6-6.475,18.507a.971.971,0,0,1-.479.9A1.135,1.135,0,0,1,181.122,166.687Z" data-name="Path 250" transform="translate(-132.631 -101.852)"/></g></g><g id="Group_30" data-name="Group 30" transform="translate(131.302 69.955)"><path id="Path_251" fill="#ca9661" d="M203.407,190.591s18.123-7.707,17.09-29.861,13.709-46.4,14.489-54.938-25.96-1.328-36.1,16.857S188.952,178.675,203.407,190.591Z" data-name="Path 251" transform="translate(-191.842 -102.217)"/><g id="Group_29" data-name="Group 29" transform="translate(0.8 2.478)"><path id="Path_252" fill="#fefada" d="M211.237,189.105l-.308-.144c.431-.931.274-3.874.068-7.953-.589-11.437-1.691-32.729,7.659-50.852,12.648-24.509,18.479-24.338,18.726-24.317l-.027.342c-.048.007-5.913-.055-18.4,24.133-9.308,18.041-8.213,39.272-7.624,50.674C211.552,185.266,211.7,188.1,211.237,189.105Z" data-name="Path 252" transform="translate(-198.568 -105.838)"/><path id="Path_253" fill="#fefada" d="M225.282,127.975a.528.528,0,0,1-.1-.014c-.917-.246-1.006-4.49-.849-12.237.041-1.889.068-3.518.007-3.819l.335-.075a38.677,38.677,0,0,1,.007,3.9c-.075,3.792-.233,11.676.6,11.9.048.007.2-.075.431-.486,2.245-4.018,14.736-8.028,15.269-8.2l.1.329c-.13.041-12.894,4.134-15.071,8.042C225.83,127.606,225.584,127.975,225.282,127.975Z" data-name="Path 253" transform="translate(-202.875 -107.729)"/><path id="Path_254" fill="#fefada" d="M213.2,151.312a.618.618,0,0,1-.192-.027c-1.088-.335-1.451-3.5-2.005-9.082-.486-4.914-1.04-10.492-2.464-13.853l.315-.13c1.444,3.415,2,9.014,2.491,13.955.438,4.373.849,8.507,1.766,8.788.192.055.438-.089.725-.438,3.2-3.833,14.072-5.934,14.53-6.016l.062.335c-.11.021-11.218,2.163-14.332,5.9A1.267,1.267,0,0,1,213.2,151.312Z" data-name="Path 254" transform="translate(-197.911 -112.901)"/><path id="Path_255" fill="#fefada" d="M205.728,179.319c-.876,0-2.142-3-4.456-8.672-2.272-5.578-5.106-12.511-7.8-15.885l.267-.212c2.731,3.415,5.571,10.376,7.85,15.967,1.7,4.154,3.449,8.453,4.127,8.453h.014c.014,0,.164-.034.274-.616.965-5.085,13.531-12.888,14.065-13.223l.178.294c-.13.082-12.97,8.056-13.907,12.99-.068.363-.205.856-.575.9A.051.051,0,0,1,205.728,179.319Z" data-name="Path 255" transform="translate(-193.155 -121.21)"/><path id="Path_256" fill="#fefada" d="M206.048,208.7a1.118,1.118,0,0,1-.151-.014.978.978,0,0,1-.746-.7c-1.4-3.648-12.032-15.276-12.142-15.393l.253-.233c.438.479,10.78,11.792,12.2,15.5.11.294.267.452.479.486,1.246.2,4.243-3.422,7.138-6.933,2.635-3.2,5.366-6.509,7.488-7.953l.192.281c-2.087,1.417-4.8,4.709-7.419,7.891C210.244,205.412,207.533,208.7,206.048,208.7Z" data-name="Path 256" transform="translate(-193.01 -133.143)"/></g></g><g id="Group_32" data-name="Group 32" transform="translate(0.006 220.159)"><path id="Path_257" fill="#ca9661" d="M90.968,326.9s-15.742-11.834-34.406.151S9.529,338.394,1.747,341.994s11.84,23.14,32.654,22.818S87.881,345.375,90.968,326.9Z" data-name="Path 257" transform="translate(-0.006 -321.68)"/><g id="Group_31" data-name="Group 31" transform="translate(2.563 3.155)"><path id="Path_258" fill="#fefada" d="M25.754,352.111c-19.711,0-21.908-4.065-22-4.257l.308-.151c.027.055,2.936,5.154,30.1,3.853,20.279-.965,38.108-12.539,47.69-18.76,3.593-2.334,5.968-3.874,7.07-3.976l.034.342c-1.02.1-3.491,1.7-6.919,3.922-9.6,6.235-27.486,17.843-47.861,18.815C31.058,352.042,28.266,352.111,25.754,352.111Z" data-name="Path 258" transform="translate(-3.75 -327.088)"/><path id="Path_259" fill="#fefada" d="M20.681,367.145l-.233-.253a36.978,36.978,0,0,1,3.374-1.957c3.319-1.827,10.225-5.64,10.006-6.475-.014-.048-.157-.13-.637-.13h-.055c-4.627,0-14.277-8.747-14.688-9.116l.233-.253c.1.089,9.958,9.027,14.455,9.027h.116c.363,0,.821.048.91.383.246.917-3.388,3.121-10.17,6.865C22.337,366.153,20.907,366.94,20.681,367.145Z" data-name="Path 259" transform="translate(-8.389 -333.444)"/><path id="Path_260" fill="#fefada" d="M43.764,369.241l-.274-.205c2.231-2.957,6.8-6.242,10.834-9.144,3.566-2.567,6.94-4.989,6.721-5.927q-.072-.3-.739-.411c-4.914-.849-12.176-9.212-12.484-9.568l.26-.226c.075.089,7.488,8.63,12.285,9.459.6.1.938.322,1.02.671.253,1.109-2.306,3.011-6.858,6.283C50.512,363.054,45.961,366.325,43.764,369.241Z" data-name="Path 260" transform="translate(-16.291 -331.803)"/><path id="Path_261" fill="#fefada" d="M72.332,367.63l-.322-.123c1.588-4.072,6.194-10.013,9.9-14.79,2.772-3.579,5.64-7.275,5.249-7.816-.007-.014-.11-.123-.671.068-4.894,1.711-17.932-5.263-18.486-5.557l.164-.3c.137.068,13.462,7.193,18.205,5.537.349-.123.842-.253,1.061.055.513.712-1.451,3.313-5.256,8.227C78.492,357.685,73.907,363.612,72.332,367.63Z" data-name="Path 261" transform="translate(-24.026 -330.336)"/><path id="Path_262" fill="#fefada" d="M101.295,350.9l-.329-.1c.2-.623,4.818-15.235,7.316-18.329a.652.652,0,0,0,.178-.657c-.452-1.191-5.092-1.964-9.575-2.71-4.086-.684-8.316-1.389-10.636-2.5l.151-.308c2.272,1.1,6.475,1.8,10.54,2.478,5,.835,9.315,1.554,9.835,2.922a.985.985,0,0,1-.233,1C106.093,335.721,101.343,350.751,101.295,350.9Z" data-name="Path 262" transform="translate(-30.417 -326.29)"/></g></g><g id="Group_34" data-name="Group 34" transform="translate(100.946 233.769)"><path id="Path_263" fill="#6e6c7b" d="M236.306,345.23s-16.816-10.239-34.228,3.511-45.7,15.885-53.1,20.224,14.044,21.874,34.727,19.52S235.04,363.922,236.306,345.23Z" data-name="Path 263" transform="translate(-147.489 -341.565)"/><g id="Group_33" data-name="Group 33" transform="translate(2.67 3.658)"><path id="Path_264" fill="#fefada" d="M163.867,376.792c-10.718,0-12.388-2.484-12.477-2.628l.294-.178-.144.089.144-.089c.034.048,3.429,4.832,30.333.9,20.088-2.943,36.705-16.2,45.63-23.325,3.347-2.676,5.564-4.442,6.653-4.647l.062.335c-1.006.192-3.313,2.033-6.5,4.579-8.952,7.145-25.611,20.444-45.794,23.393A127.558,127.558,0,0,1,163.867,376.792Z" data-name="Path 264" transform="translate(-151.39 -346.91)"/><path id="Path_265" fill="#fefada" d="M169.273,395.538l-.253-.226a38.681,38.681,0,0,1,3.169-2.279c3.128-2.149,9.63-6.612,9.329-7.419-.021-.048-.171-.116-.65-.068-4.572.52-15.112-7.3-15.557-7.631l.205-.274c.11.082,10.882,8.056,15.317,7.57.37-.041.876-.055,1.006.287.335.89-3.066,3.436-9.452,7.823C170.826,394.388,169.485,395.312,169.273,395.538Z" data-name="Path 265" transform="translate(-155.783 -356.608)"/><path id="Path_266" fill="#fefada" d="M193.574,395.172l-.294-.178c1.93-3.162,6.16-6.878,9.89-10.157,3.3-2.9,6.42-5.64,6.112-6.557-.062-.192-.329-.3-.78-.335-4.976-.363-13.018-7.98-13.36-8.309l.233-.246c.082.075,8.3,7.857,13.148,8.213.609.048.965.233,1.081.568.363,1.075-2.005,3.224-6.215,6.919C199.686,388.355,195.477,392.051,193.574,395.172Z" data-name="Path 266" transform="translate(-164.61 -354.004)"/><path id="Path_267" fill="#fefada" d="M220.733,390.982l-.329-.089c1.184-4.2,5.188-10.574,8.4-15.687,2.409-3.833,4.9-7.789,4.462-8.288-.014-.014-.123-.116-.664.137-4.7,2.183-18.356-3.484-18.938-3.73l.13-.315c.137.055,14.1,5.845,18.664,3.737.335-.157.814-.335,1.061-.055.582.664-1.116,3.436-4.428,8.7C225.894,380.483,221.9,386.828,220.733,390.982Z" data-name="Path 267" transform="translate(-171.045 -351.991)"/><path id="Path_268" fill="#fefada" d="M247.921,371.506l-.335-.068c.137-.637,3.306-15.632,5.489-18.952a.664.664,0,0,0,.116-.678c-.568-1.136-5.256-1.458-9.794-1.766-4.134-.281-8.411-.568-10.827-1.451l.116-.322c2.368.869,6.618,1.157,10.732,1.43,5.058.342,9.424.637,10.081,1.951a.97.97,0,0,1-.137,1.013C251.214,355.929,247.956,371.349,247.921,371.506Z" data-name="Path 268" transform="translate(-177.009 -347.339)"/></g></g><g id="Group_36" data-name="Group 36" transform="translate(228.932 233.769)"><path id="Path_269" fill="#3e2d4a" d="M334.49,345.23s16.816-10.239,34.228,3.511,45.7,15.885,53.1,20.224-14.044,21.874-34.727,19.52S335.756,363.922,334.49,345.23Z" data-name="Path 269" transform="translate(-334.49 -341.565)"/><g id="Group_35" data-name="Group 35" transform="translate(3.183 3.658)"><path id="Path_270" fill="#fefada" d="M409.628,376.792a128.427,128.427,0,0,1-18.192-1.574c-20.183-2.957-36.842-16.255-45.794-23.393-3.189-2.546-5.5-4.387-6.5-4.579l.062-.335c1.088.205,3.3,1.971,6.653,4.647,8.925,7.125,25.542,20.382,45.63,23.325,26.9,3.942,30.3-.849,30.333-.9l.294.178C422.016,374.314,420.346,376.792,409.628,376.792Z" data-name="Path 270" transform="translate(-339.14 -346.91)"/><path id="Path_271" fill="#fefada" d="M434.839,395.534c-.205-.226-1.547-1.15-3.107-2.224-6.386-4.387-9.787-6.933-9.452-7.823.13-.342.637-.329,1.006-.287,4.442.486,15.208-7.488,15.317-7.57l.205.274c-.445.335-10.992,8.158-15.557,7.631-.465-.055-.63.021-.65.068-.3.808,6.2,5.277,9.329,7.419a37.69,37.69,0,0,1,3.169,2.272Z" data-name="Path 271" transform="translate(-365.37 -356.605)"/><path id="Path_272" fill="#fefada" d="M410.626,395.175c-1.91-3.114-6.112-6.817-9.828-10.075-4.209-3.7-6.57-5.845-6.214-6.919.116-.342.465-.527,1.081-.568,4.853-.356,13.066-8.131,13.148-8.213l.24.246c-.342.322-8.384,7.939-13.36,8.309-.452.034-.712.144-.78.335-.308.91,2.813,3.655,6.112,6.557,3.73,3.278,7.96,6.995,9.89,10.157Z" data-name="Path 272" transform="translate(-356.626 -354.008)"/><path id="Path_273" fill="#fefada" d="M381.807,390.979c-1.17-4.154-5.161-10.5-8.37-15.6-3.313-5.263-5.01-8.035-4.428-8.7.246-.281.725-.1,1.061.055,4.565,2.115,18.52-3.675,18.664-3.737l.13.315c-.582.24-14.236,5.907-18.938,3.73-.541-.253-.65-.151-.664-.137-.438.5,2.053,4.462,4.462,8.288,3.217,5.113,7.221,11.478,8.4,15.687Z" data-name="Path 273" transform="translate(-348.53 -351.988)"/><path id="Path_274" fill="#fefada" d="M354.138,371.509c-.034-.157-3.292-15.57-5.441-18.835a.986.986,0,0,1-.137-1.013c.65-1.314,5.017-1.608,10.075-1.951,4.113-.281,8.364-.568,10.732-1.43l.116.322c-2.416.883-6.694,1.177-10.827,1.451-4.538.308-9.233.623-9.794,1.766a.652.652,0,0,0,.116.678c2.183,3.319,5.359,18.315,5.489,18.952Z" data-name="Path 274" transform="translate(-342.086 -347.342)"/></g></g><g id="Group_38" data-name="Group 38" transform="translate(216.772 48.107)"><path id="Path_275" fill="#6a8185" d="M317.535,132.991s19.314,3.826,30.929-15.071,37.444-30.641,42.892-37.26-20.71-15.7-39.327-6.379S312.293,115,317.535,132.991Z" data-name="Path 275" transform="translate(-316.722 -70.295)"/><g id="Group_37" data-name="Group 37" transform="translate(3.687 1.153)"><path id="Path_276" fill="#fefada" d="M322.288,135.1l-.178-.294c.876-.527,2.409-3.046,4.531-6.536,5.948-9.787,17.015-28.006,34.946-37.725,24.235-13.134,28.971-9.719,29.163-9.568l-.212.267c-.014-.007-1.2-.869-5.332-.116-3.812.7-10.971,2.943-23.455,9.712-17.85,9.678-28.889,27.842-34.816,37.6C324.711,132.108,323.239,134.524,322.288,135.1Z" data-name="Path 276" transform="translate(-322.11 -74.658)"/><path id="Path_277" fill="#fefada" d="M403.812,87.489c-.13-.041-12.983-3.833-16.987-1.834-.335.164-.8.356-1.04.075-.616-.719,1.7-4.278,6.18-10.595,1.1-1.54,2.04-2.868,2.156-3.155l.315.13a37.1,37.1,0,0,1-2.19,3.23c-2.2,3.087-6.762,9.52-6.2,10.177.034.034.205.055.63-.157,4.113-2.06,16.7,1.656,17.234,1.814Z" data-name="Path 277" transform="translate(-342.174 -71.98)"/><path id="Path_278" fill="#fefada" d="M378.5,101.521c-.1-.048-10.492-4.524-15.174-3.189-.589.171-.986.116-1.211-.164-.712-.89.773-3.716,3.449-8.637,2.361-4.339,5.037-9.26,5.756-12.84l.335.068c-.725,3.634-3.415,8.576-5.79,12.942-2.1,3.86-4.086,7.508-3.484,8.261.123.157.411.171.849.048,4.791-1.369,14.968,3.011,15.4,3.2Z" data-name="Path 278" transform="translate(-334.68 -73.466)"/><path id="Path_279" fill="#fefada" d="M343.034,117.348a.4.4,0,0,1-.2-.048c-.773-.424-.137-3.614,1.164-9.691,1.259-5.886,2.82-13.216,2.491-17.521l.342-.027c.335,4.353-1.232,11.71-2.5,17.617-.945,4.428-1.923,9-1.335,9.322.014.007.151.068.575-.356,3.662-3.662,18.438-3.046,19.061-3.018l-.014.342c-.157-.007-15.249-.637-18.808,2.916A1.325,1.325,0,0,1,343.034,117.348Z" data-name="Path 279" transform="translate(-328.545 -77.686)"/><path id="Path_280" fill="#fefada" d="M329.644,142.011a2.011,2.011,0,0,1-1.389-.37.991.991,0,0,1-.226-1c.9-3.805-1.348-19.4-1.369-19.554l.335-.048c.1.643,2.279,15.817,1.369,19.684a.673.673,0,0,0,.123.671c.924.869,5.434-.445,9.8-1.718,3.976-1.164,8.1-2.361,10.663-2.361v.342c-2.525,0-6.611,1.191-10.574,2.348C334.763,141.059,331.513,142.011,329.644,142.011Z" data-name="Path 280" transform="translate(-323.546 -87.462)"/></g></g><g id="Group_40" data-name="Group 40" transform="translate(6.295 117.006)"><path id="Path_281" fill="#6a8185" d="M72.863,242.852s-19.691.3-27.726-20.375S13.791,185.621,9.623,178.134s23.195-11.738,39.833.773S81.247,226.1,72.863,242.852Z" data-name="Path 281" transform="translate(-9.195 -170.963)"/><g id="Group_39" data-name="Group 39" transform="translate(3.22 1.524)"><path id="Path_282" fill="#fefada" d="M71.542,243.314c-.835-.732-1.848-3.374-3.374-7.378-4.086-10.663-11.683-30.518-27.514-43.235-11.067-8.891-17.713-12.388-21.333-13.757-3.935-1.485-5.256-.849-5.263-.842l-.157-.3c.212-.116,5.489-2.628,26.973,14.64,15.9,12.778,23.523,32.688,27.616,43.378,1.458,3.812,2.512,6.564,3.285,7.241Z" data-name="Path 282" transform="translate(-13.9 -174.585)"/><path id="Path_283" fill="#fefada" d="M39.319,188.3a1.41,1.41,0,0,1-.753-.349c-3.58-2.683-16.905-1.252-17.042-1.239l-.034-.342c.554-.062,13.6-1.458,17.282,1.307.383.287.554.3.589.274.671-.541-2.669-7.686-4.278-11.122a37.907,37.907,0,0,1-1.581-3.566l.335-.068c.062.3.753,1.779,1.554,3.491,3.278,7.015,4.921,10.937,4.182,11.532A.4.4,0,0,1,39.319,188.3Z" data-name="Path 283" transform="translate(-16.295 -173.19)"/><path id="Path_284" fill="#fefada" d="M43.835,204.957l-.075-.335c.459-.109,11.252-2.594,15.728-.39.4.2.691.233.842.1.725-.63-.575-4.572-1.944-8.747-1.554-4.716-3.313-10.061-3.381-13.77l.342-.007c.062,3.655,1.814,8.973,3.36,13.668,1.752,5.325,2.7,8.37,1.848,9.116-.267.233-.671.219-1.218-.055C54.964,202.39,43.945,204.93,43.835,204.957Z" data-name="Path 284" transform="translate(-23.323 -175.91)"/><path id="Path_285" fill="#fefada" d="M74.459,227.311c-.3,0-.575-.335-.76-.6-2.861-4.134-17.829-6.221-17.98-6.242l.048-.342c.623.082,15.269,2.129,18.212,6.386.335.486.486.459.5.452.637-.205.493-4.887.356-9.411-.185-6.037-.411-13.558.7-17.781l.329.089c-1.1,4.175-.869,11.669-.691,17.685.185,6.215.246,9.465-.6,9.746A.331.331,0,0,1,74.459,227.311Z" data-name="Path 285" transform="translate(-27.098 -181.578)"/><path id="Path_286" fill="#fefada" d="M83.42,254.375c-1.7,0-5.085-1.7-8.911-3.607-3.682-1.848-7.494-3.751-9.979-4.2l.062-.335c2.532.459,6.365,2.382,10.068,4.237,4.065,2.033,8.275,4.141,9.335,3.443a.665.665,0,0,0,.246-.637c-.2-3.963,4.668-18.507,4.873-19.123l.322.109c-.048.151-5.051,15.091-4.853,18.993a.988.988,0,0,1-.4.944A1.477,1.477,0,0,1,83.42,254.375Z" data-name="Path 286" transform="translate(-29.878 -192.428)"/></g></g><g id="Group_42" data-name="Group 42" transform="translate(233.198 156.929)"><path id="Path_287" fill="#3e2d4a" d="M341.535,291.991s19.314,3.826,30.929-15.071,37.444-30.641,42.892-37.26-20.71-15.7-39.327-6.379S336.293,274,341.535,291.991Z" data-name="Path 287" transform="translate(-340.722 -229.295)"/><g id="Group_41" data-name="Group 41" transform="translate(3.687 1.146)"><path id="Path_288" fill="#fefada" d="M346.288,294.1l-.178-.294c.876-.527,2.409-3.046,4.531-6.536,5.948-9.787,17.015-28.006,34.946-37.725,24.235-13.134,28.971-9.719,29.163-9.568l-.212.267c-.014-.007-1.2-.869-5.332-.116-3.812.7-10.971,2.943-23.455,9.712-17.85,9.678-28.889,27.842-34.816,37.6C348.711,291.108,347.239,293.524,346.288,294.1Z" data-name="Path 288" transform="translate(-346.11 -233.652)"/><path id="Path_289" fill="#fefada" d="M427.812,246.486c-.13-.034-12.983-3.833-16.987-1.834-.335.164-.8.356-1.04.075-.616-.719,1.7-4.284,6.187-10.6,1.1-1.54,2.04-2.868,2.149-3.155l.315.13a36.421,36.421,0,0,1-2.19,3.224c-2.2,3.094-6.762,9.52-6.2,10.177.034.034.205.055.63-.157,4.12-2.06,16.7,1.656,17.234,1.814Z" data-name="Path 289" transform="translate(-366.174 -230.97)"/><path id="Path_290" fill="#fefada" d="M402.5,260.521c-.1-.048-10.492-4.517-15.174-3.189-.589.171-.986.116-1.211-.164-.712-.89.773-3.716,3.449-8.637,2.361-4.339,5.037-9.26,5.756-12.84l.335.068c-.725,3.634-3.415,8.576-5.79,12.942-2.1,3.86-4.086,7.508-3.484,8.261.123.157.411.171.849.048,4.791-1.369,14.968,3.011,15.4,3.2Z" data-name="Path 290" transform="translate(-358.68 -232.46)"/><path id="Path_291" fill="#fefada" d="M367.034,276.348a.4.4,0,0,1-.2-.048c-.773-.424-.137-3.614,1.164-9.691,1.259-5.886,2.82-13.216,2.491-17.521l.342-.027c.335,4.353-1.232,11.71-2.5,17.617-.945,4.428-1.923,9-1.335,9.322.014.007.157.062.575-.356,3.662-3.662,18.438-3.046,19.061-3.018l-.014.342c-.157-.007-15.249-.637-18.808,2.916A1.325,1.325,0,0,1,367.034,276.348Z" data-name="Path 291" transform="translate(-352.545 -236.679)"/><path id="Path_292" fill="#fefada" d="M353.644,301.011a2.012,2.012,0,0,1-1.389-.37,1,1,0,0,1-.226-1c.9-3.805-1.348-19.4-1.369-19.554l.335-.048c.1.643,2.279,15.817,1.369,19.684a.673.673,0,0,0,.123.671c.924.876,5.434-.445,9.8-1.718,3.976-1.164,8.1-2.361,10.663-2.361v.342c-2.526,0-6.611,1.191-10.567,2.348C358.77,300.059,355.513,301.011,353.644,301.011Z" data-name="Path 292" transform="translate(-347.546 -246.456)"/></g></g><g id="Group_43" data-name="Group 43" transform="translate(30.344 75.044)"><path id="Path_293" fill="#6a8185" d="M145.123,195.113s-2.745-32.482,17.569-35.829c17.24-2.84,30.984,4.853,37.746,22.257S149.606,200.37,145.123,195.113Z" data-name="Path 293" transform="translate(-76.101 -125.133)"/><path id="Path_294" fill="#e7bd9f" d="M72.055,133.62S78.324,145.912,84.087,145s8.158-8.85,17.473-5.578,17.829,22.839,26.8,25.611-5.838,23.366-5.838,23.366-72.076,4.538-75.005-.753,19.472-31.955,21.655-33.6c5.044-3.812-2.183-10.376-2.183-10.376Z" data-name="Path 294" transform="translate(-45.255 -117.216)"/><path id="Path_295" fill="#e7bd9f" d="M77.609,120.992s7.748,15.632-.582,18.774C71.3,141.921,64.955,133.044,64.9,127.89S72.914,118.555,77.609,120.992Z" data-name="Path 295" transform="translate(-50.823 -113.006)"/><ellipse id="Ellipse_8" cx=".541" cy=".698" fill="#34263b" data-name="Ellipse 8" rx=".541" ry=".698" transform="translate(19.384 18.227) rotate(-20.677)"/><ellipse id="Ellipse_9" cx=".541" cy=".698" fill="#34263b" data-name="Ellipse 9" rx=".541" ry=".698" transform="translate(24.682 16.229) rotate(-20.677)"/><path id="Path_296" fill="#e7bd9f" d="M86.744,131.989s-.1-3.128,1.588-2.382,1.567,4.592.383,5.017S86.607,133.33,86.744,131.989Z" data-name="Path 296" transform="translate(-57.713 -115.913)"/><path id="Path_297" fill="#a0444e" d="M79.37,130.134a1.763,1.763,0,0,1,2.313.3C82.416,131.106,78.166,131,79.37,130.134Z" data-name="Path 297" transform="translate(-55.322 -116.023)"/><path id="Path_298" fill="#a0444e" d="M72.023,132.588a1.761,1.761,0,0,0-1.8,1.485C69.956,135.025,73.5,132.677,72.023,132.588Z" data-name="Path 298" transform="translate(-52.499 -116.889)"/><path id="Path_299" fill="#e7bd9f" d="M67.923,139.3s-1.985-2.423-2.758-.753,1.834,4.49,3.011,4.031S68.909,140.226,67.923,139.3Z" data-name="Path 299" transform="translate(-50.863 -118.586)"/><path id="Path_300" fill="#a0444e" d="M64.007,125.39s2.957,6.167,1.355,9.349C65.362,134.732,56.15,132.248,64.007,125.39Z" data-name="Path 300" transform="translate(-49.541 -114.619)"/><path id="Path_301" fill="#c87d79" d="M78.8,139.1a2.811,2.811,0,0,1-1.862-.972l.274-.205a2.553,2.553,0,0,0,1.533.842,31.591,31.591,0,0,0-1.424-3.559l.315-.144c1.061,2.354,1.547,3.668,1.444,3.908l-.116.11A.534.534,0,0,1,78.8,139.1Z" data-name="Path 301" transform="translate(-54.623 -117.671)"/><path id="Path_302" fill="#c87d79" d="M78.475,142.508a5.01,5.01,0,0,1-2.525-.972l.205-.274c.021.014,1.807,1.328,3,.767.657-.315,1.027-1.157,1.1-2.519l.342.014c-.075,1.5-.506,2.443-1.294,2.813A1.945,1.945,0,0,1,78.475,142.508Z" data-name="Path 302" transform="translate(-54.311 -119.075)"/><path id="Path_303" fill="#c87d79" d="M68.372,142.165c-.787-1.923-1.677-1.841-1.684-1.841l-.048-.335c.041-.007,1.157-.151,2.053,2.053Z" data-name="Path 303" transform="translate(-51.373 -119.224)"/><path id="Path_304" fill="#c87d79" d="M88.486,134.475c-.78-2.245.144-2.875.185-2.9l.185.287c-.007.007-.732.534-.048,2.5Z" data-name="Path 304" transform="translate(-58.168 -116.572)"/><path id="Path_305" fill="#e7bd9f" d="M63.809,153.266a7.516,7.516,0,0,0-2.45-4.8c-2.286-1.978-4.75-4.935-3.34-4.264s3.189,1.786,3.189,1.786-2.553-2.471-2.156-2.813,3.867,1.314,3.867,1.314-3.073-1.752-1.841-2.341,9.513,6.577,8.145,9.137C67.54,154.423,67.615,154.58,63.809,153.266Z" data-name="Path 305" transform="translate(-48.521 -119.896)"/><path id="Path_306" fill="#6a8185" d="M150.249,200.131s2.662-18.363,7.789-20.71,55.239,13.428,61.639,14.065,10.595,6.434,10.123,7.549-8.3,1.513-11.567,2.156S149.825,212.3,150.249,200.131Z" data-name="Path 306" transform="translate(-77.757 -131.595)"/><path id="Path_307" fill="#6a8185" d="M156.816,173.742s-2.532-7.734,1.738-11.409c15.085-12.983,56.143,14.961,63.24,21.477,4.743,4.353,14.8,8.98,14.14,9.986s-10.294-4.237-13.62-4.2S154.168,185.624,156.816,173.742Z" data-name="Path 307" transform="translate(-79.595 -125.205)"/><path id="Path_308" fill="#c87d79" d="M58.129,152.8s6.228-.472,7.152-.041,1.971,39.806-2.156,42.044-14.6,2.676-18.205.185S55.4,151.271,58.129,152.8Z" data-name="Path 308" transform="translate(-44.333 -123.198)"/><path id="Path_309" fill="#c87d79" d="M73.639,154.234s12.107,8.815,13.572-7.522c0,0,8.959-7.624,15.776-7.672,10.937-.082,14.017,15.981,24.358,17.008,4.216.418-1.4,35.939-1.4,35.939s-63.808,1.389-67.073.459-1.252-23.982.938-27.137S71.743,153.618,73.639,154.234Z" data-name="Path 309" transform="translate(-48.379 -118.926)"/><path id="Path_310" fill="#c87d79" d="M76.09,146.091s3.716,4.743,6.516,4.319,3.066-7.515,3.066-7.515l-1.252-1.615S84.419,149.507,76.09,146.091Z" data-name="Path 310" transform="translate(-54.355 -119.634)"/><path id="Path_311" fill="#a0444e" d="M62.027,118.48s1.177-3.155,5.681-5.044,10.65-4.8,11-3.429-1.075,4.476-1.075,4.476,3.422-2.5,3.128-.63-1.369,6.139-8.076,8.131S59.016,123.852,62.027,118.48Z" data-name="Path 311" transform="translate(-49.689 -109.652)"/><path id="Path_312" fill="#a0444e" d="M80.67,120.033s2.409,8.192,4.435,7.665c0,0,.992-4.154-.287-6.447S80.67,120.033,80.67,120.033Z" data-name="Path 312" transform="translate(-55.8 -112.848)"/><path id="Path_313" fill="#a34d5b" d="M71.068,195.98l-.178-.287c3.621-2.252,3.326-30,3.319-30.285l.342-.007C74.565,166.55,74.846,193.625,71.068,195.98Z" data-name="Path 313" transform="translate(-52.714 -127.245)"/><path id="Path_314" fill="#a34d5b" d="M88.15,162.055a23.561,23.561,0,0,1-8.98-2.218l.151-.308a22.761,22.761,0,0,0,9.3,2.176c4.243-.157,6.262-7.446,6.68-10.246l.335.048a23.531,23.531,0,0,1-1.827,5.975c-1.4,2.95-3.141,4.483-5.181,4.558C88.471,162.048,88.307,162.055,88.15,162.055Z" data-name="Path 314" transform="translate(-55.327 -122.846)"/><path id="Path_315" fill="#fefada" d="M84.48,169.623s.322-8.966,10.164-14.024c5.735-2.95,6.892,3.107,7.234,4s-14.811,12.258-16.994,12.025-22.12,1.485-22.545,1.259-1.834-3.559.308-5.16S80.455,164.23,84.48,169.623Z" data-name="Path 315" transform="translate(-49.747 -123.899)"/><path id="Path_316" fill="#6a8185" d="M67.608,195.329s-8.589-23.195-6.42-24.044c2.95-1.157,19.978-1.081,23.085-.849,0,0,12.456-13.921,16.358-13.045s12.265,26.6,10.663,26.706-11.621,8.124-19.67,11.635C91.624,195.726,69.812,196.308,67.608,195.329Z" data-name="Path 316" transform="translate(-49.541 -124.706)"/><path id="Path_317" fill="#e7bd9f" d="M119.482,197.286s-4.517-2.5-7.535-2.649-6.844.287-5.359.773,3.538.91,3.538.91-3.559.027-3.5.548,3.71,1.718,3.71,1.718-3.436-.849-2.943.424,6.858,1.615,9.329,4.175S123.144,198.969,119.482,197.286Z" data-name="Path 317" transform="translate(-63.875 -136.463)"/><path id="Path_318" fill="#a34d5b" d="M120.9,155.945c-4.722-5.325-1.246-12.58-1.211-12.655l.308.151c-.034.068-3.408,7.125,1.164,12.272Z" data-name="Path 318" transform="translate(-67.714 -120.268)"/><path id="Path_319" fill="#c87d79" d="M116.44,184.98s-2.731,8.808,0,11.847,25.672-4.661,28.109-11.437S143.3,172.606,139.2,172.64,128.582,181.448,116.44,184.98Z" data-name="Path 319" transform="translate(-66.706 -129.53)"/><path id="Path_320" fill="#a34d5b" d="M125.742,195a16.543,16.543,0,0,1-3.942-.465l.082-.335c7.542,1.821,15.269-2.163,19.985-6.5,3.313-3.046,5.249-6.31,4.935-8.316-.78-5.037-7.508-18.315-7.577-18.452l.308-.157c.281.548,6.824,13.462,7.611,18.555.329,2.122-1.649,5.5-5.044,8.624C138.137,191.606,132.066,195,125.742,195Z" data-name="Path 320" transform="translate(-68.78 -125.787)"/><path id="Path_321" fill="#a34d5b" d="M131.956,180.621l-.246-.24c.637-.657,6.673-5.475,9.034-6.372l.123.322C138.54,175.215,132.586,179.971,131.956,180.621Z" data-name="Path 321" transform="translate(-71.908 -129.963)"/><path id="Path_322" fill="#fefada" d="M66.682,174.873l-.062-.335c.52-.1,12.723-2.313,17.644.014l-.144.308C79.3,172.58,66.812,174.853,66.682,174.873Z" data-name="Path 322" transform="translate(-51.366 -129.799)"/><path id="Path_323" fill="#fefada" d="M101.74,173.775s12.224-7.166,12.847-8.364c.219-.418,2.478,6.735,2.478,6.735s-11.539,6.42-12.231,6.516S102.082,175.124,101.74,173.775Z" data-name="Path 323" transform="translate(-62.45 -127.244)"/><path id="Path_324" fill="#a34d5b" d="M123.121,202.066c-2.3-4.572-1.595-12.737-1.567-13.086l.342.027c-.007.082-.725,8.418,1.533,12.9Z" data-name="Path 324" transform="translate(-68.664 -134.687)"/><path id="Path_325" fill="#a34d5b" d="M71.031,160.294c-2.443-.938-9.472-.671-9.548-.671l-.014-.342c.294-.014,7.173-.274,9.685.691Z" data-name="Path 325" transform="translate(-49.741 -125.301)"/><path id="Path_326" fill="#c87d79" d="M62.941,147.092l-.3-.164a4.488,4.488,0,0,1,1.779-1.567l.164.3A4.309,4.309,0,0,0,62.941,147.092Z" data-name="Path 326" transform="translate(-50.11 -120.921)"/><path id="Path_327" fill="#515562" d="M198.7,168.026c-6.967-3.326-18.951-5.065-27.431-1.732l-.123-.322c8.569-3.367,20.669-1.622,27.705,1.738Z" data-name="Path 327" transform="translate(-84.354 -126.853)"/><path id="Path_328" fill="#44324e" d="M249.051,192.96s-1.773,8.432.267,9.089,12.039-2.149,14.783-.753,4.7,3.805,4.408.376-3.853-6.591-7.378-7.577S249.051,192.96,249.051,192.96Z" data-name="Path 328" transform="translate(-108.713 -135.943)"/><path id="Path_329" fill="#44324e" d="M249.34,204.62s-.739,5.017,1.3,5.674,9.486-1.4,12.224,0,7.645,3.922,7.351.493-3.853-6.591-7.378-7.576S249.34,204.62,249.34,204.62Z" data-name="Path 329" transform="translate(-108.988 -139.103)"/><path id="Path_330" fill="#6a8185" d="M162.577,168.03s-8.384,23.523-7.926,33.105c.178,3.71,14.955,2.443,19.828,2.2S164.384,171.993,162.577,168.03Z" data-name="Path 330" transform="translate(-79.142 -128.075)"/><path id="Path_331" fill="#515562" d="M159.624,185.182c-1.027-.849-.157-4.661.609-8.021.308-1.362.6-2.656.691-3.449.294-2.669,2.84-5.708,2.95-5.831l.26.219c-.027.027-2.587,3.087-2.868,5.653-.089.814-.37,2.053-.7,3.491-.671,2.943-1.588,6.967-.725,7.679Z" data-name="Path 331" transform="translate(-80.569 -128.028)"/><path id="Path_332" fill="#863a42" d="M65.031,124.4l-.171-.294c.171-.1,4.278-2.416,6.132-2.416,3.956,0,6.221-1.389,6.735-4.141l.335.062c-.548,2.929-2.929,4.414-7.07,4.414C69.233,122.026,65.072,124.374,65.031,124.4Z" data-name="Path 332" transform="translate(-50.811 -112.145)"/><path id="Path_333" fill="#863a42" d="M63.394,122.96l-.294-.171c.089-.157,2.293-3.833,5.291-4.64A7.6,7.6,0,0,1,71.313,118c1.184.116,1.9.192,2.676-1.2l.3.164c-.883,1.581-1.821,1.485-3.011,1.369a7.3,7.3,0,0,0-2.8.137C65.619,119.243,63.422,122.926,63.394,122.96Z" data-name="Path 333" transform="translate(-50.255 -111.908)"/><path id="Path_334" fill="#863a42" d="M64.91,134.706c-.048-.151-1.157-3.73-.561-4.976l.308.144c-.534,1.122.568,4.688.582,4.722Z" data-name="Path 334" transform="translate(-50.594 -115.989)"/><path id="Path_335" fill="#863a42" d="M85.662,127.879a4.818,4.818,0,0,0-1.252-2.642l.219-.267A4.921,4.921,0,0,1,86,127.81Z" data-name="Path 335" transform="translate(-56.98 -114.486)"/><path id="Path_336" fill="#fefada" d="M257.558,203.619a27.476,27.476,0,0,0-1.588-3l.294-.171a28.721,28.721,0,0,1,1.622,3.08Z" data-name="Path 336" transform="translate(-111.122 -138.307)"/><path id="Path_337" fill="#fefada" d="M262.032,203.681l-.335-.048c.157-1.109-1.143-3.244-1.157-3.265l.294-.178C260.889,200.286,262.21,202.455,262.032,203.681Z" data-name="Path 337" transform="translate(-112.564 -138.224)"/><path id="Path_338" fill="#fefada" d="M258.788,212.619a27.486,27.486,0,0,0-1.588-3l.294-.171a28.722,28.722,0,0,1,1.622,3.08Z" data-name="Path 338" transform="translate(-111.51 -141.147)"/><path id="Path_339" fill="#fefada" d="M263.272,212.691l-.335-.048c.157-1.109-1.143-3.244-1.157-3.265l.294-.178C262.122,209.289,263.443,211.459,263.272,212.691Z" data-name="Path 339" transform="translate(-112.955 -141.068)"/><path id="Path_340" fill="#515562" d="M221.758,202.1c-.308-.007-31.086-.719-45.041-2.888-12.018-1.868-14.79-4.428-14.907-4.531l.24-.246c.027.027,2.847,2.594,14.722,4.442,13.935,2.17,44.686,2.875,44.994,2.881Z" data-name="Path 340" transform="translate(-81.407 -136.407)"/><path id="Path_341" fill="#d3d0b1" d="M85.161,175.791c-6.447-2.409-20.033-.808-20.17-.787l-.041-.342c.137-.014,13.8-1.629,20.327.808Z" data-name="Path 341" transform="translate(-50.839 -129.999)"/><path id="Path_342" fill="#d3d0b1" d="M97.072,167.912l-.322-.116c2.224-5.982,10.1-10.314,10.177-10.355l.164.3C107.009,157.782,99.248,162.053,97.072,167.912Z" data-name="Path 342" transform="translate(-60.875 -124.733)"/><path id="Path_343" fill="#515562" d="M101.688,202.517c-.2,0-.472-.205-4.716-12.094-2.115-5.927-4.2-11.929-4.223-11.984l.322-.11c3.23,9.3,8.213,23.332,8.719,23.886l-.1.089.007.219A.021.021,0,0,0,101.688,202.517Z" data-name="Path 343" transform="translate(-59.612 -131.326)"/><path id="Path_344" fill="#515562" d="M106.819,200.418c-1.013-2.875-8.986-24.755-9.069-24.981l.322-.116c.082.219,8.056,22.107,9.069,24.981Z" data-name="Path 344" transform="translate(-61.19 -130.376)"/></g><g id="Group_44" data-name="Group 44" transform="translate(20.442 188.924)"><path id="Path_345" fill="#68818d" d="M36.3,277.088s117.446,1.15,122.381,0,16.618-1.814,18.028.527,6.3,40.394-.746,42.694-141.777.767-144.6.767-1.061-39.012.356-40.921S31.717,277.847,36.3,277.088Z" data-name="Path 345" transform="translate(-29.866 -276.042)"/><path id="Path_346" fill="#493558" d="M83.974,292.4s-.281,18.342,1.684,21.046,84.5,2.4,87.3,1.807,1.122-23.455,1.122-23.455S83.693,289.4,83.974,292.4Z" data-name="Path 346" transform="translate(-46.937 -280.728)"/><path id="Path_347" fill="#493558" d="M46.174,277.115l-.684,44.809s5.818.356,6.844.356.684-45.87.684-45.87Z" data-name="Path 347" transform="translate(-34.796 -276.158)"/><path id="Path_348" fill="#493558" d="M64.674,277.094l-.684,43.46s5.818.342,6.844.342.684-44.487.684-44.487Z" data-name="Path 348" transform="translate(-40.635 -276.158)"/></g><g id="Group_45" data-name="Group 45" transform="translate(17.681 147.498)"><path id="Path_349" fill="#493558" d="M36.3,215.518s117.316.048,122.381,0c8.494-.075,17.35,1.075,18.76,3.347s5.571,36.349-1.478,38.574-141.777.739-144.6.739-1.061-37.835.356-39.689S31.717,216.258,36.3,215.518Z" data-name="Path 349" transform="translate(-27.104 -215.515)"/><path id="Path_350" fill="#fefada" d="M29.362,226.91s124.564.342,125.933,2.738,3.08,24.3-3.08,26.35-121.142,2.738-124.222.684S24.913,227.594,29.362,226.91Z" data-name="Path 350" transform="translate(-25.831 -219.111)"/><path id="Path_351" fill="#d3d0b1" d="M114.588,237.69c-7.1,0-13.948-.246-19.663-.452-4.866-.171-8.706-.315-11.224-.253-13.873.335-52.317.684-52.7.684v-.342c.39,0,38.827-.349,52.7-.684,2.532-.062,6.379.075,11.245.253,7.049.253,15.817.568,24.673.4,18.664-.342,36.972-.657,36.972-.657l.007.342s-18.308.315-36.972.657C117.935,237.677,116.251,237.69,114.588,237.69Z" data-name="Path 351" transform="translate(-27.462 -222.178)"/><path id="Path_352" fill="#d3d0b1" d="M75.154,246.815c-17.069,0-46.273-.568-46.664-.575l.007-.342c.527.014,52.413,1.02,58.155.342,2.786-.329,17.562-.876,33.2-1.465,16.618-.623,33.8-1.259,35.569-1.615l.068.335c-1.8.363-18.993,1-35.624,1.622-15.632.582-30.395,1.136-33.174,1.458C85.235,246.746,80.875,246.815,75.154,246.815Z" data-name="Path 352" transform="translate(-26.67 -224.239)"/><path id="Path_353" fill="#d3d0b1" d="M61.845,254.683c-16.207,0-33.6-.294-33.865-.3l.007-.342c.39.007,39.532.678,55.082,0,13.456-.582,71.83-2.758,72.952-2.389l-.11.322c-1.225-.315-55.239,1.643-72.829,2.4C77.874,254.607,70.01,254.683,61.845,254.683Z" data-name="Path 353" transform="translate(-26.509 -226.905)"/><path id="Path_354" fill="#d3d0b1" d="M62.637,262.807c-15.776,0-31.374-.219-31.647-.219l.007-.342c.486.007,48.4.671,61.242-.342,4.88-.383,14.475-.534,24.632-.684,17.056-.26,36.384-.554,39.99-2.04l.13.315c-3.668,1.513-23.031,1.807-40.114,2.067-10.157.157-19.745.3-24.612.684C86.708,262.677,74.622,262.807,62.637,262.807Z" data-name="Path 354" transform="translate(-27.459 -229.295)"/><path id="Path_355" fill="#6a8185" d="M169.392,253.453s-12.32-16.084-10.951-16.768,23.27-2.738,22.928-.684S170.761,253.453,169.392,253.453Z" data-name="Path 355" transform="translate(-67.647 -221.699)"/><path id="Path_356" fill="#ca9661" d="M142.392,270.453s-12.32-16.084-10.951-16.768,23.27-2.738,22.928-.684S143.761,270.453,142.392,270.453Z" data-name="Path 356" transform="translate(-59.126 -227.064)"/><path id="Path_357" fill="#b94d59" d="M79.99,226.24S84.1,267.989,84.1,270.384s4.791-10.951,4.791-10.951,4.12,11.012,5.386,10.492,3.511-41.975,1.458-43.344S79.99,226.24,79.99,226.24Z" data-name="Path 357" transform="translate(-42.922 -218.783)"/></g><g id="Group_46" data-name="Group 46" transform="translate(247.19 89.607)"><path id="Path_358" fill="#ca9661" d="M403.356,137.409S419.283,256.046,421.021,261.1s2.526,24.783-9.363,25.152c-2.772.089-26.022,9.78-29.314-8.186-1.41-7.679-20.834-138.04-21.176-141s35.042-7.111,37.109-5.845S402.042,132.68,403.356,137.409Z" data-name="Path 358" transform="translate(-361.166 -130.949)"/><path id="Path_359" fill="#c37e59" d="M385.77,306.369s36.979-7.3,39.689-6.146,4.065,17.761,4.8,24.365-3.491,15.112-14.619,16.679-24.844,3.463-26.583-12.046C387.762,317.627,385.77,306.369,385.77,306.369Z" data-name="Path 359" transform="translate(-368.931 -184.317)"/><path id="Path_360" fill="#fefada" d="M370.8,136.255s19.636,140.661,22.723,143.084,23.12-1.054,23.475-3.956c.725-5.906-18.7-141.072-20.875-143.454S369.18,131.615,370.8,136.255Z" data-name="Path 360" transform="translate(-364.181 -130.931)"/><path id="Path_361" fill="#d3d0b1" d="M400.391,282.1c-3.367-4.312-24.721-141.257-25.631-147.081l.335-.055c.219,1.424,22.25,142.68,25.563,146.924Z" data-name="Path 361" transform="translate(-365.456 -132.202)"/><path id="Path_362" fill="#d3d0b1" d="M415.461,277.254c-.171-1.3-16.98-130.47-19.841-145.322l.335-.062c2.861,14.866,19.677,144.042,19.841,145.343Z" data-name="Path 362" transform="translate(-372.039 -131.227)"/><path id="Path_363" fill="#d3d0b1" d="M424.848,279.428l-.342-.014c.349-7.631-16.755-145.617-16.926-147.013l.342-.041C408.093,133.749,425.2,271.769,424.848,279.428Z" data-name="Path 363" transform="translate(-375.814 -131.382)"/><path id="Path_364" fill="#d3d0b1" d="M409.938,278.839c-.253-1.341-25-134.433-24.413-147.389l.342.014c-.589,12.915,24.153,145.972,24.406,147.314Z" data-name="Path 364" transform="translate(-368.85 -131.095)"/></g><g id="Group_47" data-name="Group 47" transform="translate(209.892 91.215)"><path id="Path_365" fill="#6e6c7b" d="M348.481,143.208s.725,119.7,1.807,124.933-.643,24.9-12.484,23.756c-2.765-.267-27.055,6.392-28.041-11.84-.417-7.8-3.128-139.566-3.094-142.55s35.658-2.6,37.554-1.081S347.776,138.349,348.481,143.208Z" data-name="Path 365" transform="translate(-306.67 -133.907)"/><path id="Path_366" fill="#57495b" d="M309.57,308.988s37.609-2.546,40.155-1.054.835,17.323.725,23.968-4.435,15.351-15.68,15.5-24.926.205-23.612-15.345A85.62,85.62,0,0,0,309.57,308.988Z" data-name="Path 366" transform="translate(-307.585 -188.25)"/><path id="Path_367" fill="#fefada" d="M316.4,137.083S318,279.1,320.756,281.892s23.065,1.889,23.783-.944c1.471-5.763-.63-142.3-2.484-144.946S315.383,132.272,316.4,137.083Z" data-name="Path 367" transform="translate(-309.73 -133.428)"/><path id="Path_368" fill="#d3d0b1" d="M327.515,284.625c-2.792-4.7-6.577-143.248-6.735-149.148l.342-.007c.041,1.444,3.942,144.35,6.687,148.984Z" data-name="Path 368" transform="translate(-311.123 -133.971)"/><path id="Path_369" fill="#d3d0b1" d="M343.068,281.731c0-1.314-.267-131.565-1.218-146.671l.342-.021c.951,15.112,1.218,145.377,1.218,146.691Z" data-name="Path 369" transform="translate(-317.772 -133.835)"/><path id="Path_370" fill="#d3d0b1" d="M351.245,285.073l-.335-.062c1.314-7.522,1.882-146.568,1.882-147.971h.342C353.128,138.45,352.559,277.517,351.245,285.073Z" data-name="Path 370" transform="translate(-320.631 -134.467)"/><path id="Path_371" fill="#d3d0b1" d="M337.221,282.579c-.075-1.362-7.72-136.521-5.489-149.3l.335.062c-2.224,12.737,5.421,147.855,5.5,149.223Z" data-name="Path 371" transform="translate(-314.45 -133.28)"/></g><g id="Group_48" data-name="Group 48" transform="translate(163.978 91.19)"><path id="Path_372" fill="#493558" d="M286.661,139.558S287.7,263.8,289.015,269s2.245,17.548-.212,19.075-42.673,7.364-45.24-.055-3.538-149.942-3.593-152.933,41.3-1.786,43.358-.329S285.764,134.719,286.661,139.558Z" data-name="Path 372" transform="translate(-239.706 -133.244)"/><path id="Path_373" fill="#b94d59" d="M239.766,149.41h44.959s.486,6.023,0,6.023-42.783.5-44.234.164S239.766,149.41,239.766,149.41Z" data-name="Path 373" transform="translate(-239.585 -138.345)"/><path id="Path_374" fill="#b94d59" d="M239.766,165.09h44.959s.486,6.023,0,6.023-42.783.5-44.234.164S239.766,165.09,239.766,165.09Z" data-name="Path 374" transform="translate(-239.585 -143.294)"/><path id="Path_375" fill="#b94d59" d="M258.889,191.14h22.736s.7,82.992.459,82.992-22.093,2.58-22.825-1.807S258.889,191.14,258.889,191.14Z" data-name="Path 375" transform="translate(-245.649 -151.515)"/></g><g id="Group_50" data-name="Group 50" transform="translate(140.628 -0.013)"><path id="Path_376" fill="#e7bd9f" d="M222.27,75.96s3.388,6.694,11.861,12.34,18.4-6.167,18.4-6.167S225.884,73.373,222.27,75.96Z" data-name="Path 376" transform="translate(-210.771 -23.812)"/><path id="Path_377" fill="#e7bd9f" d="M291.846,27.55s-2.122,7.967-1.273,10.677,10.821,3.443,14.092,7.433-5.968,40.162-6.03,42.673-35.309-2.046-39.662-4.154,7.488-38.649,11.69-41.914,8.323-.219,10.362-4.038a13.062,13.062,0,0,0,1.164-7.994Z" data-name="Path 377" transform="translate(-222.056 -8.685)"/><g id="Group_49" data-name="Group 49" transform="translate(56.705)"><path id="Path_378" fill="#e7bd9f" d="M307.554,13.161s-3.86,17.015-12.3,14.195c-5.8-1.944-5.113-12.833-1.91-16.864S305.453,8.3,307.554,13.161Z" data-name="Path 378" transform="translate(-289.137 -2.605)"/><ellipse id="Ellipse_10" cx=".698" cy=".541" fill="#34263b" data-name="Ellipse 10" rx=".698" ry=".541" transform="translate(5.76 15.157) rotate(-71.523)"/><ellipse id="Ellipse_11" cx=".698" cy=".541" fill="#34263b" data-name="Ellipse 11" rx=".698" ry=".541" transform="translate(11.13 16.951) rotate(-71.523)"/><path id="Path_379" fill="#e7bd9f" d="M309.9,25.993s1.9-2.484,2.731-.842-1.684,4.551-2.875,4.134S308.951,26.951,309.9,25.993Z" data-name="Path 379" transform="translate(-294.853 -7.751)"/><path id="Path_380" fill="#34263b" d="M306.3,19.819a1.754,1.754,0,0,1,1.6,1.7C308.045,22.5,304.814,19.73,306.3,19.819Z" data-name="Path 380" transform="translate(-293.871 -6.245)"/><path id="Path_381" fill="#34263b" d="M298.766,17.245a1.765,1.765,0,0,0-2.334.014C295.625,17.834,299.854,18.258,298.766,17.245Z" data-name="Path 381" transform="translate(-290.848 -5.3)"/><path id="Path_382" fill="#e7bd9f" d="M291.161,19.727S291.154,16.6,289.5,17.4s-1.41,4.64-.212,5.03S291.339,21.061,291.161,19.727Z" data-name="Path 382" transform="translate(-288.321 -5.441)"/><path id="Path_383" fill="#323044" d="M295.787,7.2s-1.608,6.646-4.853,8.1C290.934,15.3,285.363,7.556,295.787,7.2Z" data-name="Path 383" transform="translate(-288.677 -2.263)"/><path id="Path_384" fill="#323044" d="M312.488,12.04s-2.717,6.276-.992,9.39C311.5,21.437,320.6,18.6,312.488,12.04Z" data-name="Path 384" transform="translate(-295.454 -3.791)"/><path id="Path_385" fill="#323044" d="M309.538,9.6s2.259-4.675-1.02-7.371S298.033,3.37,297.629.413c-.253-1.868-2.4,2.943.7,4.024,0,0-3.1-2.71-3.23-2.115C293.81,8.106,306.081,14.074,309.538,9.6Z" data-name="Path 385" transform="translate(-290.43 0.013)"/><path id="Path_386" fill="#493558" d="M301.814,9.6l-.411-.144c-2.45-.89-3.3-1.868-3.58-2.525a1.344,1.344,0,0,1-.068-1.068l.212.1-.109-.048.109.048a1.2,1.2,0,0,0,.075.9c.267.616,1.081,1.533,3.443,2.389a17.326,17.326,0,0,0,4.476.958c1.4.144,2.245.233,2.416,1.41l-.233.034c-.144-1-.787-1.068-2.2-1.211A18.068,18.068,0,0,1,301.814,9.6Z" data-name="Path 386" transform="translate(-291.275 -1.84)"/><path id="Path_387" fill="#493558" d="M310.776,9.98c0-.021-.021-1.944-3.128-3.395a4.5,4.5,0,0,0-3.155-.212,2.077,2.077,0,0,1-1.595-.048c-.431-.287-.732-.931-.958-2.087l.226-.048c.212,1.075.486,1.691.862,1.937s.828.144,1.417.014a4.709,4.709,0,0,1,3.306.233c3.258,1.519,3.265,3.525,3.265,3.607Z" data-name="Path 387" transform="translate(-292.619 -1.313)"/><path id="Path_388" fill="#c87d79" d="M299.641,26.5a2.565,2.565,0,0,1-.972-2.019l.342.014a2.575,2.575,0,0,0,.657,1.622,32.952,32.952,0,0,0,1.143-3.655l.329.089c-.671,2.5-1.122,3.819-1.341,3.942Z" data-name="Path 388" transform="translate(-291.587 -7.079)"/><path id="Path_389" fill="#c87d79" d="M298.524,29.8a1.538,1.538,0,0,1-.4-.048c-1.471-.363-2.067-2.635-2.087-2.731l.329-.082c.007.021.568,2.17,1.841,2.484.712.178,1.533-.246,2.443-1.259l.253.226A3.466,3.466,0,0,1,298.524,29.8Z" data-name="Path 389" transform="translate(-290.757 -8.493)"/><path id="Path_390" fill="#c87d79" d="M290.6,22.135l-.328-.1c.609-1.992-.137-2.491-.144-2.5l.178-.294C290.349,19.274,291.294,19.863,290.6,22.135Z" data-name="Path 390" transform="translate(-288.892 -6.063)"/><path id="Path_391" fill="#c87d79" d="M310.412,29.044l-.322-.116c.814-2.238,1.923-2.135,1.971-2.129l-.041.342.021-.171-.014.171S311.123,27.079,310.412,29.044Z" data-name="Path 391" transform="translate(-295.191 -8.447)"/></g><path id="Path_392" fill="#44324e" d="M327.413,195.867s-3.518,9.91-1.752,13.736,6.105,5.756,8.5,5.359-3.025-5.913-3.538-9.527,1.595-9.575,1.595-9.575h-4.8Z" data-name="Path 392" transform="translate(-243.243 -61.801)"/><path id="Path_393" fill="#44324e" d="M314.113,197s-3.518,9.91-1.752,13.736,6.105,5.756,8.5,5.359-3.025-5.913-3.538-9.527,1.595-9.575,1.595-9.575h-4.8Z" data-name="Path 393" transform="translate(-239.046 -62.158)"/><path id="Path_394" fill="#ca9661" d="M282.262,125.757s4.818-13.161,18.007-10.047,17.391,56.355,10.615,61.016c-2.656,1.827-11.888.438-12.059-1.964C297,148.9,281.352,136.646,282.262,125.757Z" data-name="Path 394" transform="translate(-229.692 -36.357)"/><path id="Path_395" fill="#ca9661" d="M299.445,116.593s21.518-3.073,31.134,6.475,2.868,50.722-5.359,54.35c-3.1,1.369-8.542-.78-8.542-.78C314.639,173.878,292.971,125.4,299.445,116.593Z" data-name="Path 395" transform="translate(-234.747 -36.637)"/><path id="Path_396" fill="#a36e4c" d="M321.935,176.521l-.322-.116c1.54-4.23,5.742-32.263,2.409-47.937-1.745-8.213-4.394-11.088-6.3-12.053a3.936,3.936,0,0,0-3.176-.281l-.144-.308a4.194,4.194,0,0,1,3.463.274c1.985.992,4.716,3.935,6.5,12.292C327.7,144.128,323.475,172.278,321.935,176.521Z" data-name="Path 396" transform="translate(-239.846 -36.467)"/><path id="Path_397" fill="#ca9661" d="M283.018,126.928s-22.387,1-26.124-2.005c-6.413-5.174.883-14.612.883-14.612l33.666,3.853C291.443,114.15,291.046,126.8,283.018,126.928Z" data-name="Path 397" transform="translate(-220.865 -34.803)"/><path id="Path_398" fill="#b94d59" d="M277.352,45.35s.075,6.064,7.063,6.7c6.1.554,5.551-7.036,9.787-5.338s7.255.554,9.746,7.077-1.177,41.784-3.2,41.585-22.907-2.71-30.333,2.163c-6.187,4.059-17.767,7.522-16.8,2.341s3.443-43.782,6.988-49.319C262.87,47.02,275.58,45.507,277.352,45.35Z" data-name="Path 398" transform="translate(-220.648 -14.303)"/><path id="Path_399" fill="#ca9661" d="M212.63,66.87s39.135-5.126,40.648-1.28,1.684,12.217,0,12.833-38.834,3.135-40.114,1.239S212.63,66.87,212.63,66.87Z" data-name="Path 399" transform="translate(-207.661 -20.239)"/><path id="Path_400" fill="#c87d79" d="M211.151,51.275l41.736-.055c1.184,4.018,1.574,11.361-.219,11.471-11.69.684-25.536,1.376-33.92,1.362-4.634-.007-7.6-.233-7.611-.794C211.069,60.932,211.151,51.275,211.151,51.275Z" data-name="Path 400" transform="translate(-207.249 -16.155)"/><path id="Path_401" fill="#493558" d="M209.613,32.577s41.8-3.388,42.988.568.739,11.163-.992,11.635-30,.116-41.072.376C208.244,45.212,209.613,32.577,209.613,32.577Z" data-name="Path 401" transform="translate(-206.649 -9.846)"/><path id="Path_402" fill="#e7bd9f" d="M205.47,66.652a25.12,25.12,0,0,1,.3-4.558c1.1-2.813,3.34-5.585,3.148-4.038s-.678,3.593-.678,3.593,1.533-3.21,1.978-2.943-.014,4.086-.014,4.086.684-3.47,1.629-2.491-1.437,3.443-1.622,8.3C210.09,72.168,206.2,71.1,205.47,66.652Z" data-name="Path 402" transform="translate(-205.469 -18.172)"/><path id="Path_403" fill="#a36e4c" d="M283.64,133.542a1.936,1.936,0,0,1-1.143-.26.693.693,0,0,1-.287-.541c-.123-1.951,7.282-4.271,8.131-4.531l.1.329c-2.224.678-7.98,2.758-7.884,4.182a.366.366,0,0,0,.151.287c.657.493,3.059-.048,5.386-.561a26.914,26.914,0,0,1,5.044-.828h.055v.342h-.055a27,27,0,0,0-4.969.821A25.344,25.344,0,0,1,283.64,133.542Z" data-name="Path 403" transform="translate(-229.687 -40.452)"/><path id="Path_404" fill="#a36e4c" d="M294.92,180.007l-.342-.041c.376-2.888.712-11.416-4.332-28.116-3.1-10.287-6.967-19.02-9.4-21.244-.445-.4-.821-.582-1.122-.513-4.175.938-15.44-1.465-15.92-1.567l.075-.335c.116.027,11.669,2.484,15.776,1.567a1.7,1.7,0,0,1,1.424.6c2.478,2.259,6.386,11.06,9.5,21.395C292.265,157.339,296.057,171.267,294.92,180.007Z" data-name="Path 404" transform="translate(-223.877 -40.446)"/><path id="Path_405" fill="#e7bd9f" d="M297.727,62.288s7.262,5.865,9.37,11.423S295.879,93.422,290.178,94.12s-36.425-15.94-36.637-17.364.041-6.119,1.951-5.913c2.786.308,22.976,7.33,30.162,8.391C289.357,79.789,293.142,60.94,297.727,62.288Z" data-name="Path 405" transform="translate(-220.62 -19.626)"/><path id="Path_406" fill="#b94d59" d="M302.05,67.85s16.275,3.449,19.485,7.618c1.595,2.074,4.312-7.214,4.086-14.763S311.728,46.64,309.5,47.318,302.05,67.85,302.05,67.85Z" data-name="Path 406" transform="translate(-235.948 -14.908)"/><path id="Path_407" fill="#9b434c" d="M308.152,66.669l-.342-.048c.048-.335,1.116-8.24,3.381-10.636s6.461-3.251,6.639-3.285l.068.335c-.041.007-4.264.876-6.461,3.189S308.166,66.587,308.152,66.669Z" data-name="Path 407" transform="translate(-237.766 -16.622)"/><path id="Path_408" fill="#9b434c" d="M258.162,119.539l-.322-.116c.082-.233,2.252-5.735,16.139-6.461a154.4,154.4,0,0,1,17.966.24c4.339.253,7.474.438,9.418-.075l.089.329c-2,.52-5.154.335-9.527.082A152.223,152.223,0,0,0,274,113.3C260.365,114.016,258.182,119.478,258.162,119.539Z" data-name="Path 408" transform="translate(-221.997 -35.586)"/><path id="Path_409" fill="#9b434c" d="M294.892,56.828c-3.887,0-9.849-8.015-10.1-8.357l.274-.205c.062.082,6.112,8.213,9.828,8.213h.048c2.45-.048,5.195-3.675,7.008-6.071,1.2-1.588,1.759-2.286,2.142-2.211l-.062.335a9.182,9.182,0,0,0-1.8,2.081c-1.855,2.45-4.661,6.16-7.275,6.208A.211.211,0,0,1,294.892,56.828Z" data-name="Path 409" transform="translate(-230.501 -15.2)"/><path id="Path_410" fill="#9b434c" d="M323.941,81.584c-.1-.068-10.451-7.022-17.432-5.6l-.068-.335c7.125-1.444,17.59,5.578,17.692,5.646Z" data-name="Path 410" transform="translate(-237.334 -23.803)"/><path id="Path_411" fill="#c87d79" d="M293.527,33.47s1.889,2.491,4.148,2.45,4.38-2.074,4.38-2.074a19.231,19.231,0,0,0-.281,2.087c-.014.6-2.984,2.95-6.242,2.943-1.355,0-2.142-2.478-2.074-2.82A6.585,6.585,0,0,0,293.527,33.47Z" data-name="Path 411" transform="translate(-233.236 -10.554)"/><path id="Path_412" fill="#fefada" d="M207.9,37.123s37.417-1.451,38.861,0,1.444,6.215,0,6.742-38.416.746-38.861.808S207.045,37.15,207.9,37.123Z" data-name="Path 412" transform="translate(-206.08 -11.503)"/><path id="Path_413" fill="#fefada" d="M217.6,55.114s36.432-1.3,37.841,0,1.4,5.571,0,6.043-37.41.671-37.841.725S216.761,55.141,217.6,55.114Z" data-name="Path 413" transform="translate(-209.143 -17.202)"/><path id="Path_414" fill="#493558" d="M219.74,82.11l-.431-12.21s-2.012-.39-2.464,0-.445,12.032,0,12.073S218.488,82.11,219.74,82.11Z" data-name="Path 414" transform="translate(-208.953 -21.996)"/><path id="Path_415" fill="#493558" d="M227.17,82.11l-.431-12.21s-2.012-.39-2.464,0-.445,12.032,0,12.073S225.918,82.11,227.17,82.11Z" data-name="Path 415" transform="translate(-211.298 -21.996)"/><path id="Path_416" fill="#493558" d="M259.661,80.1l-.274-12.217s-2.005-.417-2.464-.034-.6,12.025-.157,12.066S258.415,80.083,259.661,80.1Z" data-name="Path 416" transform="translate(-221.573 -21.351)"/><path id="Path_417" fill="#493558" d="M267.091,80.2l-.274-12.217s-2.005-.417-2.464-.034-.6,12.025-.157,12.066S265.838,80.176,267.091,80.2Z" data-name="Path 417" transform="translate(-223.917 -21.382)"/><path id="Path_418" fill="#e7bd9f" d="M262.111,76.973s-8.973-3-11.95-3.511-6.83-.554-5.414.11,3.4,1.341,3.4,1.341-3.532-.411-3.545.116,3.47,2.163,3.47,2.163-4.031-1.547-3.7-.226,7.932,4.435,10.581,6.2C257.909,85.145,265.54,79.094,262.111,76.973Z" data-name="Path 418" transform="translate(-217.74 -23.052)"/><path id="Path_419" fill="#fefada" d="M317.445,213.7a13.924,13.924,0,0,1-3-.411l.082-.329c.979.246,3.7.739,4.5.034l.226.26A2.848,2.848,0,0,1,317.445,213.7Z" data-name="Path 419" transform="translate(-239.859 -67.198)"/><path id="Path_420" fill="#fefada" d="M318.83,216.367a7.316,7.316,0,0,1-2.04-.335l.109-.322c.021.007,2.17.7,3.23.021l.185.287A2.823,2.823,0,0,1,318.83,216.367Z" data-name="Path 420" transform="translate(-240.6 -68.065)"/><path id="Path_421" fill="#fefada" d="M331.475,212.689a13.923,13.923,0,0,1-3-.411l.082-.329c.979.246,3.7.739,4.5.034l.226.26A2.835,2.835,0,0,1,331.475,212.689Z" data-name="Path 421" transform="translate(-244.286 -66.879)"/><path id="Path_422" fill="#fefada" d="M332.87,215.357a7.316,7.316,0,0,1-2.04-.335l.11-.322c.021.007,2.17.7,3.23.021l.185.287A2.839,2.839,0,0,1,332.87,215.357Z" data-name="Path 422" transform="translate(-245.031 -67.747)"/><path id="Path_423" fill="#a36e4c" d="M337.195,200.2c-.3-.014-7.344-.3-9.685-1.732l.178-.294c2.272,1.383,9.452,1.684,9.52,1.684Z" data-name="Path 423" transform="translate(-243.983 -62.53)"/><path id="Path_424" fill="#a36e4c" d="M315.312,198.235c-3.381,0-7.912-.1-9.212-.123l.007-.342c4.955.109,12.5.2,12.977.021l.157.3A25.24,25.24,0,0,1,315.312,198.235Z" data-name="Path 424" transform="translate(-237.227 -62.404)"/><path id="Path_425" fill="#d3d0b1" d="M207.324,40.347,207.31,40c.1-.007,9.979-.459,14.5-.459,3.217,0,14.147-.116,20.683-.178,2.71-.027,4.633-.048,4.866-.048v.342c-.233,0-2.156.021-4.866.048-6.536.068-17.466.178-20.683.178C217.3,39.895,207.426,40.34,207.324,40.347Z" data-name="Path 425" transform="translate(-206.05 -12.4)"/><path id="Path_426" fill="#d3d0b1" d="M221.477,44.959c-5.612,0-13.394-.192-13.5-.192l.007-.342c.137.007,13.955.342,18.007.116s21.155-1.7,21.326-1.711l.027.342c-.171.014-17.275,1.485-21.333,1.711C224.995,44.931,223.359,44.959,221.477,44.959Z" data-name="Path 426" transform="translate(-206.262 -13.507)"/><path id="Path_427" fill="#d3d0b1" d="M227.2,59.215c-4.7,0-10.136-.2-10.218-.2l.014-.342c.123.007,12.347.452,15.94,0,3.621-.452,22.983-.684,23.174-.684l.007.342c-.2,0-19.54.233-23.14.684A57.193,57.193,0,0,1,227.2,59.215Z" data-name="Path 427" transform="translate(-209.102 -18.292)"/><path id="Path_428" fill="#d3d0b1" d="M217.82,62.506v-.342c.192,0,18.952-.123,21.867-.684,2.95-.568,16.241-.356,16.8-.342l-.007.342c-.137,0-13.818-.219-16.734.342C236.806,62.383,218.593,62.5,217.82,62.506Z" data-name="Path 428" transform="translate(-209.367 -19.269)"/><path id="Path_429" fill="#b94d59" d="M252.99,39.278s.226,10.834.342,11.751,2.279-3.99,2.279-3.99l2.512,4.223.459-12.2C258.575,39.045,253.332,38.819,252.99,39.278Z" data-name="Path 429" transform="translate(-220.466 -12.296)"/></g><g id="Group_51" data-name="Group 51" transform="translate(36.949 134.347)"><path id="Path_430" fill="#b94d59" d="M225.211,207.976s-7.837-3.326-11.033,7.734-3.059,15.612,1.978,17.193,5.989-2.546,9.924-.992,10.889,2.238,12.012-2.525S235.827,202.795,225.211,207.976Z" data-name="Path 430" transform="translate(-103.86 -199.736)"/><path id="Path_431" fill="#e7bd9f" d="M226.352,218.09s-1.773,16.734,1.068,19.232,14.318-1.294,17.371,3.518,2.142,40.552,2.142,40.552H198.51s.821-41.175,3.333-42.975,14.3,2.532,14.913-4.531c.294-3.381.616-12.942.616-12.942Z" data-name="Path 431" transform="translate(-99.594 -203.177)"/><path id="Path_432" fill="#c87d79" d="M225.493,235.446s5.1,4.045,8.795-2.176c0,0-.082,3.764.041,4.367s-3.627,3.846-4.209,3.846c-1.547,0-4.75-3.675-4.75-3.675Z" data-name="Path 432" transform="translate(-108.07 -207.967)"/><path id="Path_433" fill="#7f6873" d="M212.633,246.737s2.929,9.9,8.2,10.677,6.57-11.019,8.076-10.677,9.684-3.73,13.346,2.087,3.34,51.338,3.34,51.338H198.5s.91-42.872,2.122-47.861S209.882,246.073,212.633,246.737Z" data-name="Path 433" transform="translate(-99.591 -211.88)"/><path id="Path_434" fill="#e7bd9f" d="M235.077,214.376s.78,17.432-8.11,16.939c-6.112-.335-8.329-11.026-6.3-15.755S231.765,210.249,235.077,214.376Z" data-name="Path 434" transform="translate(-106.355 -201.133)"/><ellipse id="Ellipse_12" cx=".698" cy=".541" fill="#44324e" data-name="Ellipse 12" rx=".698" ry=".541" transform="matrix(0.055, -0.998, 0.998, 0.055, 117.418, 22.384)"/><ellipse id="Ellipse_13" cx=".698" cy=".541" fill="#44324e" data-name="Ellipse 13" rx=".698" ry=".541" transform="matrix(0.055, -0.998, 0.998, 0.055, 123.39, 22.388)"/><path id="Path_435" fill="#e7bd9f" d="M240.11,226.912s1.177-2.9,2.409-1.54-.424,4.832-1.677,4.743S239.446,228.083,240.11,226.912Z" data-name="Path 435" transform="translate(-112.599 -205.36)"/><path id="Path_436" fill="#b94d59" d="M234.638,222.215a1.754,1.754,0,0,1,1.992,1.211C237.034,224.33,233.187,222.516,234.638,222.215Z" data-name="Path 436" transform="translate(-110.892 -204.468)"/><path id="Path_437" fill="#b94d59" d="M226.495,222.419a1.758,1.758,0,0,0-2.245.63C223.62,223.822,227.816,223.1,226.495,222.419Z" data-name="Path 437" transform="translate(-107.696 -204.487)"/><path id="Path_438" fill="#e7bd9f" d="M220.259,225.966s-.835-3.018-2.217-1.8-.13,4.853,1.122,4.907S220.779,227.212,220.259,225.966Z" data-name="Path 438" transform="translate(-105.567 -205.003)"/><path id="Path_439" fill="#c87d79" d="M230.681,230.3h-.068a1.326,1.326,0,0,1-1.4-.938l.335-.082c.13.548.6.65,1.04.671a37.647,37.647,0,0,0-.226-4.291l.342-.027c.26,2.881.308,4.428.137,4.606Z" data-name="Path 439" transform="translate(-109.282 -205.556)"/><path id="Path_440" fill="#c87d79" d="M229.327,233.972c-1.5,0-2.649-2-2.7-2.081l.3-.171c.014.021,1.1,1.91,2.4,1.91h.034c.732-.021,1.41-.643,2.019-1.862l.308.151c-.671,1.341-1.451,2.033-2.32,2.053Z" data-name="Path 440" transform="translate(-108.468 -207.478)"/><path id="Path_441" fill="#c87d79" d="M220.123,228.643l-.342-.007c.062-2.081-.787-2.368-.8-2.368l.089-.329C219.124,225.947,220.191,226.262,220.123,228.643Z" data-name="Path 441" transform="translate(-106.054 -205.654)"/><path id="Path_442" fill="#c87d79" d="M241.282,229.841l-.342-.027c.192-2.368,1.294-2.567,1.341-2.573l.055.335C242.323,227.575,241.446,227.767,241.282,229.841Z" data-name="Path 442" transform="translate(-112.984 -206.064)"/><path id="Path_443" fill="#b94d59" d="M217.962,218.43s.883,1.15,3,.13c5.325-2.567,6.42-8.384,6.42-8.384s.513,4.024,1.287,5.393,4.517,3.976,5.38,3.744,3.155-5.236-1.328-8.726-5.619-2.129-8.261-1.054S215.826,214.8,217.962,218.43Z" data-name="Path 443" transform="translate(-105.59 -200.102)"/><circle id="Ellipse_14" cx="4.996" cy="4.996" r="4.996" fill="#b94d59" data-name="Ellipse 14" transform="translate(117.129)"/><path id="Path_444" fill="#fefada" d="M225.967,258.164s-4.435-11.977-7.337-10.437-5.263,10.266-2.881,11.806S225.967,258.164,225.967,258.164Z" data-name="Path 444" transform="translate(-104.725 -212.486)"/><path id="Path_445" fill="#fefada" d="M232.42,258.164s4.435-11.977,7.337-10.437,5.263,10.266,2.881,11.806S232.42,258.164,232.42,258.164Z" data-name="Path 445" transform="translate(-110.295 -212.486)"/><path id="Path_446" fill="#ca9661" d="M247.193,246.149s-1.28,39.594.979,43.953,12.929,2.484,14.14-.945-.63-34.823-1.451-37.219S257.261,244.082,247.193,246.149Z" data-name="Path 446" transform="translate(-114.843 -211.887)"/><path id="Path_447" fill="#ca9661" d="M212.194,246.149s1.28,39.594-.979,43.953-12.929,2.484-14.14-.945.63-34.823,1.451-37.219S202.126,244.082,212.194,246.149Z" data-name="Path 447" transform="translate(-99.014 -211.887)"/><path id="Path_448" fill="#6a8185" d="M161.9,320.435S156.033,294,172.684,293.517s52.96,29.649,41.3,40.49S162.712,341.077,161.9,320.435Z" data-name="Path 448" transform="translate(-87.723 -226.978)"/><path id="Path_449" fill="#6a8185" d="M278.206,320.407s3.278-26.494-13.374-26.98-57.053,29.711-45.384,40.552S277.392,341.049,278.206,320.407Z" data-name="Path 449" transform="translate(-105.544 -226.95)"/><path id="Path_450" fill="#fefada" d="M59.039,341.347h120.4s-11.526-40.689-46.753-40.408-49.956,32.968-76.217,14.968C56.472,315.908,49.43,332.806,59.039,341.347Z" data-name="Path 450" transform="translate(-53.984 -229.322)"/><path id="Path_451" fill="#fefada" d="M343.763,341.347H223.36s11.526-40.689,46.753-40.408,49.956,32.968,76.217,14.968C346.329,315.908,353.372,332.806,343.763,341.347Z" data-name="Path 451" transform="translate(-107.436 -229.322)"/><path id="Path_452" fill="#dc9a8e" d="M214.4,240.88a31.16,31.16,0,0,0-.91-7.405c-.9-2.881-1.444-6.7-.6-5.386s1.773,3.2,1.773,3.2-.869-3.449-.349-3.525,2.594,3.155,2.594,3.155-1.684-3.107-.329-2.957,8.035,8.453,4.271,16.077C219.273,247.224,216.953,244,214.4,240.88Z" data-name="Path 452" transform="translate(-103.999 -206.228)"/><path id="Path_453" fill="#ca9661" d="M202.026,243.747s6.5.739,8.425,4.23-15.132,36.856-22.935,37.048-11.854-5.961-13.079-7.33S195.25,240.941,202.026,243.747Z" data-name="Path 453" transform="translate(-91.981 -211.224)"/><path id="Path_454" fill="#dc9a8e" d="M242.921,240.88a31.16,31.16,0,0,1,.91-7.405c.9-2.881,1.444-6.7.6-5.386s-1.773,3.2-1.773,3.2.869-3.449.349-3.525-2.594,3.155-2.594,3.155,1.684-3.107.329-2.957-7.973,9.9-4.271,16.077C238.308,247.087,240.368,244,242.921,240.88Z" data-name="Path 454" transform="translate(-111.222 -206.228)"/><path id="Path_455" fill="#ca9661" d="M242.456,243.747s-6.5.739-8.425,4.23,15.132,36.856,22.935,37.048,11.854-5.961,13.079-7.33S249.231,240.941,242.456,243.747Z" data-name="Path 455" transform="translate(-110.756 -211.224)"/><path id="Path_456" fill="#ca9661" d="M200.043,246.149s-3.23,27.911-5.489,32.27-18.931,3.367-20.142-.062,11.135-24.023,11.957-26.412S189.975,244.082,200.043,246.149Z" data-name="Path 456" transform="translate(-91.962 -211.887)"/><path id="Path_457" fill="#ca9661" d="M253.21,246.18s3.23,27.911,5.489,32.27,16.234,3.367,17.446-.062-10.595-23.831-11.416-26.22S262.251,244.284,253.21,246.18Z" data-name="Path 457" transform="translate(-116.856 -211.918)"/><path id="Path_458" fill="#a36e4c" d="M271.66,271.17c-5.352-12.874-15.475-24.037-18.5-24.714l.075-.335c3.484.78,13.688,12.744,18.739,24.913Z" data-name="Path 458" transform="translate(-116.84 -212.022)"/><path id="Path_459" fill="#a36e4c" d="M253.539,290.982c-.055-.1-5.694-9.582-6.9-10.916l.253-.226c1.225,1.362,6.707,10.581,6.94,10.971Z" data-name="Path 459" transform="translate(-114.783 -222.664)"/><path id="Path_460" fill="#c87d79" d="M214.026,233.059l-.116-.322c.123-.048,3.066-1.129,4.209-.554l-.151.308C217.12,232.066,214.841,232.751,214.026,233.059Z" data-name="Path 460" transform="translate(-104.454 -207.571)"/><path id="Path_461" fill="#a36e4c" d="M219.543,254.219c-1.793-2.82-12.853-7.433-12.963-7.474l.13-.315c.459.192,11.272,4.7,13.12,7.611Z" data-name="Path 461" transform="translate(-102.141 -212.12)"/><path id="Path_462" fill="#a36e4c" d="M179.915,272.491l-.315-.137c2.82-6.6,15.536-20.971,15.666-21.114l.253.226C195.389,251.61,182.714,265.941,179.915,272.491Z" data-name="Path 462" transform="translate(-93.626 -213.638)"/><path id="Path_463" fill="#a36e4c" d="M202.743,289.636l-.253-.226c.1-.109,9.589-10.8,11.177-17.74l.335.075C212.387,278.774,202.839,289.533,202.743,289.636Z" data-name="Path 463" transform="translate(-100.85 -220.085)"/><rect id="Rectangle_5" width="233.099" height="12.21" fill="#c87d79" data-name="Rectangle 5" transform="translate(5.055 112.025)"/><path id="Path_464" fill="#a36e4c" d="M185.882,299.53a10.047,10.047,0,0,1-9.815-6.42.235.235,0,0,1,.027-.26c.171-.192.6-.075,2.416.459a55.787,55.787,0,0,0,15.755,2.7v.342a56.457,56.457,0,0,1-15.851-2.71,19.325,19.325,0,0,0-1.978-.527c4.209,9.356,14.811,5.133,14.92,5.092l.13.315A16.7,16.7,0,0,1,185.882,299.53Z" data-name="Path 464" transform="translate(-92.503 -226.742)"/><path id="Path_465" fill="#a36e4c" d="M235.411,254l-.171-.294c.37-.219,9.048-5.27,12.32-4.955l-.034.342C244.377,248.781,235.5,253.955,235.411,254Z" data-name="Path 465" transform="translate(-111.185 -212.849)"/><path id="Path_466" fill="#a36e4c" d="M265.845,296.229a17.418,17.418,0,0,1-5.605-.917l.123-.322c.109.041,10.971,4.1,16.775-5.421l.294.178A12.937,12.937,0,0,1,265.845,296.229Z" data-name="Path 466" transform="translate(-119.075 -225.734)"/><path id="Path_467" fill="#fefada" d="M225.15,229.01a2.45,2.45,0,1,1,2.45-2.45A2.457,2.457,0,0,1,225.15,229.01Zm0-4.558a2.108,2.108,0,1,0,2.108,2.108A2.109,2.109,0,0,0,225.15,224.452Z" data-name="Path 467" transform="translate(-107.228 -205.076)"/><path id="Path_468" fill="#fefada" d="M234.23,229.01a2.45,2.45,0,1,1,2.45-2.45A2.457,2.457,0,0,1,234.23,229.01Zm0-4.558a2.108,2.108,0,1,0,2.108,2.108A2.109,2.109,0,0,0,234.23,224.452Z" data-name="Path 468" transform="translate(-110.093 -205.076)"/><rect id="Rectangle_6" width="2.033" height=".342" fill="#fefada" data-name="Rectangle 6" transform="translate(120.092 21.039)"/><rect id="Rectangle_7" width=".342" height="2.71" fill="#fefada" data-name="Rectangle 7" transform="matrix(0.55, -0.835, 0.835, 0.55, 113.496, 19.172)"/><path id="Path_469" fill="#fefada" d="M238.723,225.978l-.123-.322,2.306-.876.123.315Z" data-name="Path 469" transform="translate(-112.246 -205.288)"/><path id="Path_470" fill="#d3d0b1" d="M172.882,345.385c-9.226-19.9-17.747-29.225-28.485-31.155-10.314-1.855-22.209,3.08-38.67,9.9-3.956,1.643-8.049,3.34-12.477,5.085-17.117,6.769-28.629,7.864-34.221,3.244-4.326-3.579-3.278-9.411-3.265-9.465l.335.062c-.014.055-1.02,5.694,3.148,9.144,3.771,3.114,12.71,5.072,33.872-3.3,4.428-1.752,8.514-3.449,12.47-5.085,16.515-6.844,28.451-11.793,38.861-9.917,10.862,1.951,19.451,11.327,28.732,31.346Z" data-name="Path 470" transform="translate(-54.507 -233.285)"/><path id="Path_471" fill="#d3d0b1" d="M167.022,353.05c-.137-.178-13.812-17.98-35.816-16.152-7.405.616-16.994,3.313-27.137,6.173-20.628,5.811-41.955,11.827-49.47,1.8l.274-.205c7.378,9.835,28.588,3.853,49.1-1.93,10.164-2.861,19.759-5.571,27.2-6.187,22.2-1.841,35.98,16.111,36.117,16.289Z" data-name="Path 471" transform="translate(-54.178 -240.518)"/><path id="Path_472" fill="#d3d0b1" d="M124.536,357.136l-.116-.322c11.081-4.093,27.007-8.343,39.97-5.373,7.782,1.779,10.752,5.277,10.875,5.427l-.26.219c-.027-.034-3.039-3.573-10.725-5.318C157.169,350.148,144.508,349.765,124.536,357.136Z" data-name="Path 472" transform="translate(-76.212 -244.947)"/><path id="Path_473" fill="#d3d0b1" d="M233.878,345.385l-.308-.144c9.281-20.019,17.877-29.4,28.732-31.346,10.4-1.875,22.346,3.073,38.861,9.917,3.956,1.643,8.049,3.333,12.47,5.085,11.683,4.62,27.034,8.945,33.872,3.3,4.168-3.449,3.162-9.089,3.148-9.144l.335-.062c.014.062,1.061,5.893-3.265,9.465-5.592,4.62-17.1,3.532-34.221-3.244-4.428-1.752-8.521-3.449-12.477-5.085-16.46-6.824-28.355-11.751-38.67-9.9C251.632,316.161,243.111,325.476,233.878,345.385Z" data-name="Path 473" transform="translate(-110.658 -233.285)"/><path id="Path_474" fill="#d3d0b1" d="M241.984,353.053l-.274-.205c.137-.178,13.921-18.13,36.117-16.289,7.44.616,17.042,3.319,27.206,6.187,20.512,5.783,41.729,11.758,49.1,1.923l.274.205c-7.515,10.02-28.841,4.011-49.47-1.8-10.143-2.861-19.732-5.557-27.137-6.173C255.8,335.081,242.121,352.875,241.984,353.053Z" data-name="Path 474" transform="translate(-113.227 -240.522)"/><path id="Path_475" fill="#d3d0b1" d="M312.992,357.142c-11.04-4.072-26.9-8.309-39.771-5.359-7.672,1.759-10.656,5.277-10.691,5.311l-.26-.219c.123-.151,3.094-3.648,10.875-5.427,7.152-1.636,19.889-2.033,39.963,5.373Z" data-name="Path 475" transform="translate(-119.715 -244.952)"/><path id="Path_476" fill="#b94d59" d="M221.625,219.551l-.055-.335c.3-.055,7.405-1.348,6.913-9.055l.342-.021a8.343,8.343,0,0,1-3.408,7.754A10.039,10.039,0,0,1,221.625,219.551Z" data-name="Path 476" transform="translate(-106.871 -200.668)"/><path id="Path_477" fill="#b94d59" d="M226.286,205.311a2.613,2.613,0,0,1-1.978-1.821c-.472-2.211,2.717-5.147,2.854-5.27l.233.253c-.034.027-3.183,2.929-2.751,4.948.151.7.739,1.232,1.752,1.567Z" data-name="Path 477" transform="translate(-107.72 -196.906)"/><path id="Path_478" fill="#b94d59" d="M236.682,207.053l-.082-.335a3.514,3.514,0,0,0,2.279-1.807c.356-.965.021-2.163-.992-3.573l.281-.2c1.088,1.506,1.437,2.82,1.033,3.894A3.785,3.785,0,0,1,236.682,207.053Z" data-name="Path 478" transform="translate(-111.614 -197.827)"/><path id="Path_479" fill="#b94d59" d="M212.334,230.267a11.059,11.059,0,0,1-1.5-7.337,7.127,7.127,0,0,1,1.916-3.846,2.741,2.741,0,0,0,.842-3.08c-.541-1.93.986-4.914,2.71-6.577,1.287-1.239,2.594-1.725,3.682-1.369l-.1.329c-.958-.308-2.149.151-3.34,1.294-1.9,1.821-3.073,4.62-2.621,6.235a3.051,3.051,0,0,1-.917,3.4A6.823,6.823,0,0,0,211.164,223a10.709,10.709,0,0,0,1.451,7.091Z" data-name="Path 479" transform="translate(-103.439 -199.975)"/><path id="Path_480" fill="#934048" d="M221.647,217.306l-.075-.335a5.876,5.876,0,0,0,4.414-5.612c.055-.972-.164-1.458-.287-1.506-.048-.014-.137.041-.246.2-1.28,1.793-6.974,6.584-7.214,6.789l-.219-.26c.062-.048,5.9-4.969,7.159-6.728.253-.356.486-.37.637-.322.445.157.561,1.054.513,1.848A6.237,6.237,0,0,1,221.647,217.306Z" data-name="Path 480" transform="translate(-105.751 -200.469)"/><path id="Path_481" fill="#934048" d="M231.445,204.9c-1.348-1.252-.828-3.573-.8-3.668l.335.075c-.007.021-.5,2.231.7,3.347Z" data-name="Path 481" transform="translate(-109.696 -197.856)"/><path id="Path_482" fill="#934048" d="M233,204.562a1.962,1.962,0,0,1-.233-.014l-.24-.041.116-.212a15.627,15.627,0,0,0,1.478-4.3l.335.055a15.518,15.518,0,0,1-1.383,4.175,1.594,1.594,0,0,0,.972-.37,2.454,2.454,0,0,0,.616-1.985l.342-.014a2.756,2.756,0,0,1-.732,2.259A1.935,1.935,0,0,1,233,204.562Z" data-name="Path 482" transform="translate(-110.33 -197.464)"/><path id="Path_483" fill="#934048" d="M238.834,217.743a78.811,78.811,0,0,1-4.654-7.556l.315-.137a81.739,81.739,0,0,0,4.62,7.5Z" data-name="Path 483" transform="translate(-110.851 -200.639)"/><path id="Path_484" fill="#934048" d="M243.137,221.6a18.6,18.6,0,0,0-3.607-9.39L239.8,212a19,19,0,0,1,3.682,9.589Z" data-name="Path 484" transform="translate(-112.539 -201.255)"/><path id="Path_485" fill="#b94d59" d="M247.1,221.591c-.034-4.134-1.2-6.6-2.163-7.946a6.266,6.266,0,0,0-2.108-1.951l.144-.315c.178.082,4.408,2.074,4.476,10.2Z" data-name="Path 485" transform="translate(-113.58 -201.059)"/><path id="Path_486" fill="#c87d79" d="M244.954,232.99c-.773-1.068-3.538-.506-3.566-.5l-.068-.335c.123-.027,3.018-.616,3.915.637Z" data-name="Path 486" transform="translate(-113.104 -207.564)"/></g></g></svg>